<svg xmlns="http://www.w3.org/2000/svg" width="36" height="36" fill="none"><path fill="#FFC132" d="m12.352 16.545 2.974-8.14a3.93 3.93 0 0 0-.081-2.927c-.965-2.249-3.58-2.975-5.648-2.146-2.067.83-3.236 2.712-2.231 5.05l3.533 8.201c.274.638 1.215.613 1.453-.037m2.105 1.371 8.185-3.47c2.718-1.152 3.41-4.613 1.28-6.613l-.085-.078c-2.089-1.934-5.54-1.253-6.728 1.295l-3.673 7.869c-.293.628.37 1.275 1.022.997m.466 1.088 8.326-3.14c2.767-1.044 5.788.93 5.75 3.8l-.004.112c-.06 2.795-2.998 4.671-5.704 3.684l-8.359-3.053a.745.745 0 0 1-.368-1.13.743.743 0 0 1 .36-.273zm-.482 2.408 8.064 3.72a4.13 4.13 0 0 1 2.087 2.126c.964 2.25-.354 4.548-2.421 5.374-2.067.83-4.272.295-5.275-2.043l-3.51-8.213c-.272-.635.41-1.26 1.055-.964z"/></svg>