<svg xmlns="http://www.w3.org/2000/svg" width="36" height="36" fill="none"><path fill="#036BFF" d="M27.75 20.828c.357 0 .708.027 1.054.08 0 .006-.007.012-.007.017a7.46 7.46 0 0 1-.485.982L26.76 24.54a7.875 7.875 0 0 1-2.911 2.862 8.062 8.062 0 0 1-3.98 1.047h-3.097a8.074 8.074 0 0 1-3.98-1.048 7.887 7.887 0 0 1-2.913-2.861l-1.55-2.633A7.702 7.702 0 0 1 7.26 18c0-1.372.368-2.72 1.067-3.908L9.88 11.46a7.875 7.875 0 0 1 2.912-2.862 8.062 8.062 0 0 1 3.98-1.047h3.098c1.397 0 2.769.362 3.979 1.049a7.888 7.888 0 0 1 2.912 2.86l1.552 2.632c.187.316.345.65.485.983 0 .005.007.011.007.018a7.13 7.13 0 0 1-1.055.08c-2.313 0-3.185-.76-4.191-1.633-.973-.845-2.179-1.896-4.38-1.896h-1.311c-1.593 0-3.04.569-4.075 1.597-1.014 1.007-1.57 2.38-1.57 3.874v1.764c0 1.495.556 2.868 1.57 3.873 1.035 1.03 2.482 1.598 4.075 1.598h1.317c2.201 0 3.407-1.051 4.38-1.896 1.006-.879 1.872-1.633 4.185-1.627zm.006-4.047c.509 0 1.01-.046 1.5-.137a7.768 7.768 0 0 0-.447-1.54 5.918 5.918 0 0 0 2.53-1.024c0-.005-.006-.016-.006-.023a13.155 13.155 0 0 0-1.896-3.787 13.719 13.719 0 0 0-11.155-5.666c-1.844 0-3.636.35-5.317 1.051a13.744 13.744 0 0 0-4.339 2.874A13.268 13.268 0 0 0 5.7 12.787a13.162 13.162 0 0 0-1.072 5.22c0 1.81.357 3.568 1.072 5.217a13.425 13.425 0 0 0 2.926 4.259 13.57 13.57 0 0 0 4.34 2.873 13.877 13.877 0 0 0 5.316 1.051c2.98 0 5.808-.924 8.186-2.67a13.623 13.623 0 0 0 2.968-2.996 13.403 13.403 0 0 0 1.897-3.787c0-.005.006-.018.006-.023a5.917 5.917 0 0 0-2.53-1.024 7.359 7.359 0 0 0 .445-1.522c.007-.011.007-.018.007-.029a7.52 7.52 0 0 1 3.061 1.294c.873.631.703 1.344.568 1.77C30.97 28.546 25.156 33 18.282 33 9.845 33 3 26.281 3 18 3 9.719 9.839 3 18.282 3 25.156 3 30.97 7.454 32.89 13.58c.135.426.305 1.144-.568 1.776a7.457 7.457 0 0 1-3.061 1.293 7.557 7.557 0 0 1 0 2.707 8.16 8.16 0 0 0-1.505-.137c-5.329 0-5.054 3.528-8.579 3.528h-1.31c-2.419 0-4.012-1.696-4.012-3.868v-1.764c0-2.172 1.593-3.867 4.012-3.867h1.317c3.525 0 3.25 3.528 8.572 3.533z"/></svg>