<svg xmlns="http://www.w3.org/2000/svg" width="36" height="36" fill="none"><g clip-path="url(#a)"><path fill="#F1F1F1" stroke="#121212" stroke-width=".2" d="m27.578 7.783.288-.022-.24-.16-2.04-1.361-.056.083.055-.083a1.6 1.6 0 0 0-1.01-.264L9.36 7.146l-.217.016.154.154 1.705 1.706.033.032.046-.003 16.497-1.268zM7.57 9.551 7.4 9.38V23c0 .347.112.684.32.96l1.2 1.6.18.24V11.08l-.03-.03-1.5-1.5zm20.937 17.66.092-.007V10.512l-.108.009-16.5 1.269-.092.007v16.691l.108-.008 16.5-1.269zm.214 2.792-17.294 1.33a2.9 2.9 0 0 1-2.542-1.151L5.48 25.64A4.4 4.4 0 0 1 4.6 23V7.39a2.9 2.9 0 0 1 2.678-2.892L24.36 3.184a4.4 4.4 0 0 1 2.778.726l2.97 1.98A2.9 2.9 0 0 1 31.4 8.303v18.809a2.9 2.9 0 0 1-2.678 2.89zm-6.307-9.28.185.3v-6.772a1.4 1.4 0 1 1 2.8 0v10.5a1.4 1.4 0 0 1-1.4 1.4h-.75a1.4 1.4 0 0 1-1.193-.667l-3.972-6.456-.185-.3V25.5a1.4 1.4 0 0 1-2.8 0V15a1.4 1.4 0 0 1 1.4-1.4h.75a1.401 1.401 0 0 1 1.193.667l3.972 6.456z"/></g><defs><clipPath id="a"><path fill="#fff" d="M0 0h36v36H0z"/></clipPath></defs></svg>